{"title":"GLADIATOR 2000 IN H.264 BY WINKER","uid":5109471,"size":1048526776,"categoryP":"video","categoryS":"movies","magnet":"?xt=urn:btih:4aeea9b421c18a4cb459c2c978af7207e537941c&amp;dn=GLADIATOR+2000+IN+H.264+BY+WINKER&amp;tr=udp%3A%2F%2Ftracker.openbittorrent.com%3A80&amp;tr=udp%3A%2F%2Fopen.demonii.com%3A1337&amp;tr=udp%3A%2F%2Ftracker.coppersurfer.tk%3A6969&amp;tr=udp%3A%2F%2Fexodus.desync.com%3A6969","seeders":0,"leechers":0,"uploader":"alanwatson","files":-1,"time":1254648918,"description":"The great Roman General Maximus (Russell Crowe) has once again led the legions to victory on the battlefield. The war won, Maximus dreams of home, wanting only to return to his wife and son; however, the dying Emperor Marcus Aurelius (Richard Harris) has one more duty for the general - to assume the mantle of his power.\n\nJealous of Maximus' favor with the emperor, the heir to the throne, Commodus (Joaquin Phoenix), orders his execution - and that of his family. Barely escaping death, Maximus is forced into slavery and trained as a gladiator in the arena where his fame grows.\n\nNow he has come to Rome, intent on avenging the murder of his wife and son by killing the new emperor; Commodus....\n\n\nFormat : MPEG-4\nFormat profile : Base Media / Version 2\nCodec ID : mp42\nFile size : 1 000 MiB\nDuration : 2h 28mn\nOverall bit rate : 941 Kbps\nEncoded date : UTC 2009-10-03 08:28:29\nTagged date : UTC 2009-10-03 15:35:28\nWriting application : HandBrake 0.9.3 2008112300\n\nVideo\nID : 1\nFormat : AVC\nFormat/Info : Advanced Video Codec\nFormat profile : &lt;a class=&quot;__cf_email__&quot; href=&quot;/cdn-cgi/l/email-protection&quot; data-cfemail=&quot;125f737b7c525e263c22&quot;&gt;[email&amp;#160;protected]&lt;/a&gt;&lt;script cf-hash='f9e31' type=&quot;text/javascript&quot;&gt;\n/* &lt;![CDATA[ */!function(){try{var t=&quot;currentScript&quot;in document?document.currentScript:function(){for(var t=document.getElementsByTagName(&quot;script&quot;),e=t.length;e--;)if(t[e].getAttribute(&quot;cf-hash&quot;))return t[e]}();if(t&amp;&amp;t.previousSibling){var e,r,n,i,c=t.previousSibling,a=c.getAttribute(&quot;data-cfemail&quot;);if(a){for(e=&quot;&quot;,r=parseInt(a.substr(0,2),16),n=2;a.length-n;n+=2)i=parseInt(a.substr(n,2),16)^r,e+=String.fromCharCode(i);e=document.createTextNode(e),c.parentNode.replaceChild(e,c)}}}catch(u){}}();/* ]]&gt; */&lt;/script&gt;\nFormat settings, CABAC : Yes\nFormat settings, ReFrames : 3 frames\nCodec ID : avc1\nCodec ID/Info : Advanced Video Coding\nDuration : 2h 28mn\nBit rate mode : Variable\nBit rate : 777 Kbps\nWidth : 710 pixels\nHeight : 434 pixels\nDisplay aspect ratio : 2.35:1\nFrame rate mode : Variable\nFrame rate : 25.000 fps\nMinimum frame rate : 12.500 fps\nMaximum frame rate : 25.000 fps\nResolution : 24 bits\nColorimetry : 4:2:0\nScan type : Progressive\nBits/(Pixel*Frame) : 0.101\nStream size : 826 MiB (83%)\nWriting library : x264 core 65\n\n\nAudio\nID : 2\nFormat : AAC\nFormat/Info : Advanced Audio Codec\nFormat version : Version 4\nFormat profile : LC\nFormat settings, SBR : No\nCodec ID : 40\nDuration : 2h 28mn\nBit rate mode : Variable\nBit rate : 160 Kbps\nMaximum bit rate : 225 Kbps\nChannel(s) : 2 channels\nChannel positions : L R\nSampling rate : 48.0 KHz\nResolution : 16 bits\nStream size : 170 MiB (17%)\nLanguage : English\nEncoded date : UTC 2009-10-03 08:28:30\nTagged date : UTC 2009-10-03 15:35:23","torrent":{"xt":"urn:btih:4aeea9b421c18a4cb459c2c978af7207e537941c","amp;dn":"GLADIATOR+2000+IN+H.264+BY+WINKER","amp;tr":["udp%3A%2F%2Ftracker.openbittorrent.com%3A80","udp%3A%2F%2Fopen.demonii.com%3A1337","udp%3A%2F%2Ftracker.coppersurfer.tk%3A6969","udp%3A%2F%2Fexodus.desync.com%3A6969"],"infoHash":"4aeea9b421c18a4cb459c2c978af7207e537941c","infoHashBuffer":{"type":"Buffer","data":[74,238,169,180,33,193,138,76,180,89,194,201,120,175,114,7,229,55,148,28]},"announce":[],"urlList":[]}}